<svg xmlns="http://www.w3.org/2000/svg" version="1.0" width="1024.000000pt" height="1024.000000pt" viewBox="0 0 1024.000000 1024.000000" preserveAspectRatio="xMidYMid meet">

<g transform="translate(0.000000,1024.000000) scale(0.100000,-0.100000)" fill="#e91e63" stroke="none">
<path d="M3209 8229 c-291 -43 -552 -178 -747 -385 -187 -198 -300 -448 -332 -734 -8 -66 -10 -659 -8 -1930 4 -1719 5 -1840 22 -1910 133 -560 524 -933 1066 -1015 142 -22 3632 -22 3794 0 300 40 557 171 764 389 171 181 274 384 329 646 17 80 18 200 18 1955 0 1754 -1 1875 -18 1957 -37 185 -124 383 -228 524 -113 153 -283 292 -463 378 -125 60 -175 78 -308 109 l-93 21 -1870 2 c-1028 1 -1895 -2 -1926 -7z m2221 -1544 c522 -116 929 -494 1074 -997 54 -186 57 -246 54 -953 l-3 -650 -23 -58 c-33 -81 -116 -167 -202 -211 -88 -44 -186 -60 -315 -53 -207 11 -342 93 -418 255 l-32 67 0 346 0 345 38 76 c60 123 170 208 305 237 29 6 125 11 214 11 l161 0 -6 188 c-7 241 -31 343 -123 522 -163 318 -472 548 -826 615 -118 22 -317 20 -441 -6 -363 -74 -696 -347 -838 -688 -61 -147 -81 -247 -86 -448 l-6 -183 156 0 c86 0 180 -5 209 -11 152 -32 279 -139 332 -277 19 -53 21 -79 24 -355 2 -187 -1 -318 -8 -350 -31 -153 -128 -261 -286 -319 -50 -18 -81 -22 -199 -22 -122 -1 -149 2 -208 22 -142 49 -239 144 -278 272 -20 66 -20 84 -16 756 4 672 4 691 26 779 52 210 141 403 256 556 120 160 315 323 494 414 96 48 271 105 386 126 130 24 468 20 585 -6z" fill="#e91e63"/>
<path d="M3960 4498 c0 -299 2 -326 20 -366 30 -65 81 -85 215 -80 115 3 143 15 179 77 17 29 18 57 18 300 1 260 0 270 -22 309 -40 71 -74 82 -254 82 l-156 0 0 -322z" fill="#e91e63"/>
<path d="M5935 4804 c-91 -47 -97 -72 -93 -391 3 -246 4 -263 24 -289 44 -60 67 -69 183 -72 134 -5 181 13 212 81 17 38 19 69 19 365 l0 322 -157 0 c-124 0 -165 -4 -188 -16z" fill="#e91e63"/>
</g>
</svg>